<!--?xml version="1.0" encoding="utf-8"?-->
<!-- Generator: Adobe Illustrator 18.0.0, SVG Export Plug-In . SVG Version: 6.00 Build 0)  -->

<svg version="1.1" id="_x31_0" xmlns="http://www.w3.org/2000/svg" xmlns:xlink="http://www.w3.org/1999/xlink" x="0px" y="0px" viewBox="0 0 512 512" style="width: 256px; height: 256px; opacity: 1;" xml:space="preserve">
<style type="text/css">
	.st0{fill:#374149;}
</style>
<g>
	<path class="st0" d="M256,0C114.614,0,0,114.617,0,256s114.614,256,256,256s256-114.617,256-256S397.386,0,256,0z M211.129,423.305
		c-16.851,0-30.512-13.66-30.512-30.512c0-16.847,13.661-30.511,30.512-30.511c16.852,0,30.512,13.664,30.512,30.511
		C241.641,409.645,227.981,423.305,211.129,423.305z M348.317,423.305c-16.852,0-30.508-13.66-30.508-30.512
		c0-16.847,13.656-30.511,30.508-30.511c16.851,0,30.515,13.664,30.515,30.511C378.832,409.645,365.168,423.305,348.317,423.305z
		 M393.715,335.578h-0.157l-0.476,3.773h-221.07l-24.774-184.594H98.691v-37.484h81.559l24.773,184.598h154.856l3.625-28.75H239.683
		l-3.789-29.984h131.406l0.004-0.012l4.098-32.484h-139.61l-3.797-29.985h185.313L393.715,335.578z"></path>
</g>
</svg>
